<mxfile host="Electron" agent="Mozilla/5.0 (Windows NT 10.0; Win64; x64) AppleWebKit/537.36 (KHTML, like Gecko) draw.io/26.2.2 Chrome/134.0.6998.178 Electron/35.1.2 Safari/537.36" version="26.2.2">
  <diagram name="Страница — 1" id="B9HrYTZQFn0cj6t9FnJW">
    <mxGraphModel dx="1215" dy="828" grid="1" gridSize="10" guides="1" tooltips="1" connect="1" arrows="1" fold="1" page="1" pageScale="1" pageWidth="827" pageHeight="1169" math="0" shadow="0">
      <root>
        <mxCell id="0" />
        <mxCell id="1" parent="0" />
        <mxCell id="pq-BxAAFdue_On6Kdwnh-4" value="Блок схема для управления автомобилем&lt;div&gt;&lt;br&gt;&lt;/div&gt;" style="text;html=1;align=center;verticalAlign=middle;whiteSpace=wrap;rounded=0;" parent="1" vertex="1">
          <mxGeometry x="220" y="120" width="60" height="30" as="geometry" />
        </mxCell>
        <mxCell id="pq-BxAAFdue_On6Kdwnh-5" value="начало" style="rounded=1;whiteSpace=wrap;html=1;" parent="1" vertex="1">
          <mxGeometry x="190" y="180" width="120" height="60" as="geometry" />
        </mxCell>
        <mxCell id="pq-BxAAFdue_On6Kdwnh-12" value="Завести двигатель" style="rounded=1;whiteSpace=wrap;html=1;" parent="1" vertex="1">
          <mxGeometry x="190" y="350" width="120" height="60" as="geometry" />
        </mxCell>
        <mxCell id="pq-BxAAFdue_On6Kdwnh-14" value="Снять с ручного тормоза" style="rounded=1;whiteSpace=wrap;html=1;" parent="1" vertex="1">
          <mxGeometry x="190" y="440" width="120" height="60" as="geometry" />
        </mxCell>
        <mxCell id="pq-BxAAFdue_On6Kdwnh-16" value="Вкл первую передачу" style="rounded=1;whiteSpace=wrap;html=1;" parent="1" vertex="1">
          <mxGeometry x="190" y="530" width="120" height="60" as="geometry" />
        </mxCell>
        <mxCell id="pq-BxAAFdue_On6Kdwnh-18" value="Газуем" style="rounded=1;whiteSpace=wrap;html=1;" parent="1" vertex="1">
          <mxGeometry x="190" y="620" width="120" height="60" as="geometry" />
        </mxCell>
        <mxCell id="pq-BxAAFdue_On6Kdwnh-19" value="Пристегнуться" style="shape=parallelogram;perimeter=parallelogramPerimeter;whiteSpace=wrap;html=1;fixedSize=1;" parent="1" vertex="1">
          <mxGeometry x="190" y="260" width="120" height="60" as="geometry" />
        </mxCell>
        <mxCell id="pq-BxAAFdue_On6Kdwnh-24" value="Конец" style="rounded=1;whiteSpace=wrap;html=1;" parent="1" vertex="1">
          <mxGeometry x="190" y="710" width="120" height="60" as="geometry" />
        </mxCell>
        <mxCell id="pq-BxAAFdue_On6Kdwnh-25" value="" style="endArrow=classic;html=1;rounded=0;entryX=0.5;entryY=0;entryDx=0;entryDy=0;" parent="1" target="pq-BxAAFdue_On6Kdwnh-19" edge="1">
          <mxGeometry width="50" height="50" relative="1" as="geometry">
            <mxPoint x="250" y="240" as="sourcePoint" />
            <mxPoint x="300" y="190" as="targetPoint" />
          </mxGeometry>
        </mxCell>
        <mxCell id="pq-BxAAFdue_On6Kdwnh-27" value="" style="endArrow=classic;html=1;rounded=0;exitX=0.5;exitY=1;exitDx=0;exitDy=0;entryX=0.5;entryY=0;entryDx=0;entryDy=0;" parent="1" source="pq-BxAAFdue_On6Kdwnh-19" target="pq-BxAAFdue_On6Kdwnh-12" edge="1">
          <mxGeometry width="50" height="50" relative="1" as="geometry">
            <mxPoint x="370" y="540" as="sourcePoint" />
            <mxPoint x="420" y="490" as="targetPoint" />
          </mxGeometry>
        </mxCell>
        <mxCell id="pq-BxAAFdue_On6Kdwnh-29" value="" style="endArrow=classic;html=1;rounded=0;exitX=0.5;exitY=1;exitDx=0;exitDy=0;entryX=0.5;entryY=0;entryDx=0;entryDy=0;" parent="1" source="pq-BxAAFdue_On6Kdwnh-12" target="pq-BxAAFdue_On6Kdwnh-14" edge="1">
          <mxGeometry width="50" height="50" relative="1" as="geometry">
            <mxPoint x="370" y="540" as="sourcePoint" />
            <mxPoint x="420" y="490" as="targetPoint" />
          </mxGeometry>
        </mxCell>
        <mxCell id="pq-BxAAFdue_On6Kdwnh-31" value="" style="endArrow=classic;html=1;rounded=0;exitX=0.5;exitY=1;exitDx=0;exitDy=0;entryX=0.5;entryY=0;entryDx=0;entryDy=0;" parent="1" source="pq-BxAAFdue_On6Kdwnh-14" target="pq-BxAAFdue_On6Kdwnh-16" edge="1">
          <mxGeometry width="50" height="50" relative="1" as="geometry">
            <mxPoint x="370" y="540" as="sourcePoint" />
            <mxPoint x="420" y="490" as="targetPoint" />
          </mxGeometry>
        </mxCell>
        <mxCell id="pq-BxAAFdue_On6Kdwnh-32" value="" style="endArrow=classic;html=1;rounded=0;exitX=0.5;exitY=1;exitDx=0;exitDy=0;entryX=0.5;entryY=0;entryDx=0;entryDy=0;" parent="1" source="pq-BxAAFdue_On6Kdwnh-16" target="pq-BxAAFdue_On6Kdwnh-18" edge="1">
          <mxGeometry width="50" height="50" relative="1" as="geometry">
            <mxPoint x="370" y="540" as="sourcePoint" />
            <mxPoint x="420" y="490" as="targetPoint" />
          </mxGeometry>
        </mxCell>
        <mxCell id="pq-BxAAFdue_On6Kdwnh-33" value="" style="endArrow=classic;html=1;rounded=0;exitX=0.5;exitY=1;exitDx=0;exitDy=0;entryX=0.5;entryY=0;entryDx=0;entryDy=0;" parent="1" source="pq-BxAAFdue_On6Kdwnh-18" target="pq-BxAAFdue_On6Kdwnh-24" edge="1">
          <mxGeometry width="50" height="50" relative="1" as="geometry">
            <mxPoint x="370" y="540" as="sourcePoint" />
            <mxPoint x="420" y="490" as="targetPoint" />
          </mxGeometry>
        </mxCell>
        <mxCell id="pq-BxAAFdue_On6Kdwnh-34" value="Пришел в магазин" style="rhombus;whiteSpace=wrap;html=1;" parent="1" vertex="1">
          <mxGeometry x="520" y="290" width="80" height="80" as="geometry" />
        </mxCell>
        <mxCell id="pq-BxAAFdue_On6Kdwnh-35" value="Блок схема для покупки велосипедных шин" style="text;html=1;align=center;verticalAlign=middle;whiteSpace=wrap;rounded=0;" parent="1" vertex="1">
          <mxGeometry x="530" y="120" width="60" height="30" as="geometry" />
        </mxCell>
        <mxCell id="pq-BxAAFdue_On6Kdwnh-36" value="начало" style="rounded=1;whiteSpace=wrap;html=1;" parent="1" vertex="1">
          <mxGeometry x="500" y="180" width="120" height="60" as="geometry" />
        </mxCell>
        <mxCell id="pq-BxAAFdue_On6Kdwnh-40" value="" style="endArrow=classic;html=1;rounded=0;" parent="1" edge="1">
          <mxGeometry width="50" height="50" relative="1" as="geometry">
            <mxPoint x="420" y="330" as="sourcePoint" />
            <mxPoint x="420" y="400" as="targetPoint" />
          </mxGeometry>
        </mxCell>
        <mxCell id="pq-BxAAFdue_On6Kdwnh-42" value="" style="endArrow=classic;html=1;rounded=0;" parent="1" source="pq-BxAAFdue_On6Kdwnh-34" edge="1">
          <mxGeometry width="50" height="50" relative="1" as="geometry">
            <mxPoint x="370" y="380" as="sourcePoint" />
            <mxPoint x="420" y="330" as="targetPoint" />
            <Array as="points">
              <mxPoint x="470" y="330" />
            </Array>
          </mxGeometry>
        </mxCell>
        <mxCell id="pq-BxAAFdue_On6Kdwnh-45" value="" style="endArrow=classic;html=1;rounded=0;exitX=1;exitY=0.5;exitDx=0;exitDy=0;" parent="1" source="pq-BxAAFdue_On6Kdwnh-34" edge="1">
          <mxGeometry width="50" height="50" relative="1" as="geometry">
            <mxPoint x="370" y="380" as="sourcePoint" />
            <mxPoint x="710" y="330" as="targetPoint" />
          </mxGeometry>
        </mxCell>
        <mxCell id="pq-BxAAFdue_On6Kdwnh-46" value="" style="endArrow=classic;html=1;rounded=0;" parent="1" edge="1">
          <mxGeometry width="50" height="50" relative="1" as="geometry">
            <mxPoint x="710" y="330" as="sourcePoint" />
            <mxPoint x="710" y="400" as="targetPoint" />
          </mxGeometry>
        </mxCell>
        <mxCell id="pq-BxAAFdue_On6Kdwnh-47" value="Есть в наличии" style="rounded=0;whiteSpace=wrap;html=1;" parent="1" vertex="1">
          <mxGeometry x="360" y="400" width="120" height="60" as="geometry" />
        </mxCell>
        <mxCell id="pq-BxAAFdue_On6Kdwnh-48" value="Нет в наличии" style="rounded=0;whiteSpace=wrap;html=1;" parent="1" vertex="1">
          <mxGeometry x="650" y="400" width="120" height="60" as="geometry" />
        </mxCell>
        <mxCell id="pq-BxAAFdue_On6Kdwnh-61" value="" style="edgeStyle=orthogonalEdgeStyle;rounded=0;orthogonalLoop=1;jettySize=auto;html=1;" parent="1" source="pq-BxAAFdue_On6Kdwnh-49" target="pq-BxAAFdue_On6Kdwnh-60" edge="1">
          <mxGeometry relative="1" as="geometry" />
        </mxCell>
        <mxCell id="pq-BxAAFdue_On6Kdwnh-49" value="Купил" style="rounded=0;whiteSpace=wrap;html=1;" parent="1" vertex="1">
          <mxGeometry x="360" y="490" width="120" height="60" as="geometry" />
        </mxCell>
        <mxCell id="pq-BxAAFdue_On6Kdwnh-62" value="" style="edgeStyle=orthogonalEdgeStyle;rounded=0;orthogonalLoop=1;jettySize=auto;html=1;" parent="1" source="pq-BxAAFdue_On6Kdwnh-50" target="pq-BxAAFdue_On6Kdwnh-59" edge="1">
          <mxGeometry relative="1" as="geometry" />
        </mxCell>
        <mxCell id="pq-BxAAFdue_On6Kdwnh-50" value="Не купил" style="rounded=0;whiteSpace=wrap;html=1;" parent="1" vertex="1">
          <mxGeometry x="650" y="490" width="120" height="60" as="geometry" />
        </mxCell>
        <mxCell id="pq-BxAAFdue_On6Kdwnh-51" value="начало" style="rounded=1;whiteSpace=wrap;html=1;" parent="1" vertex="1">
          <mxGeometry x="930" y="180" width="120" height="60" as="geometry" />
        </mxCell>
        <mxCell id="pq-BxAAFdue_On6Kdwnh-52" value="Блок схема для написания романа" style="text;html=1;align=center;verticalAlign=middle;whiteSpace=wrap;rounded=0;" parent="1" vertex="1">
          <mxGeometry x="960" y="120" width="60" height="30" as="geometry" />
        </mxCell>
        <mxCell id="TfzMQPh2Rp4UFnEDLOlz-20" value="" style="edgeStyle=orthogonalEdgeStyle;rounded=0;orthogonalLoop=1;jettySize=auto;html=1;" edge="1" parent="1" source="pq-BxAAFdue_On6Kdwnh-54" target="pq-BxAAFdue_On6Kdwnh-56">
          <mxGeometry relative="1" as="geometry" />
        </mxCell>
        <mxCell id="pq-BxAAFdue_On6Kdwnh-54" value="Если есть вдохновение" style="shape=trapezoid;perimeter=trapezoidPerimeter;whiteSpace=wrap;html=1;fixedSize=1;" parent="1" vertex="1">
          <mxGeometry x="930" y="255" width="120" height="70" as="geometry" />
        </mxCell>
        <mxCell id="pq-BxAAFdue_On6Kdwnh-55" value="Пишу роман" style="rounded=0;whiteSpace=wrap;html=1;" parent="1" vertex="1">
          <mxGeometry x="930" y="340" width="120" height="60" as="geometry" />
        </mxCell>
        <mxCell id="pq-BxAAFdue_On6Kdwnh-56" value="Если нет вдохновения" style="shape=trapezoid;perimeter=trapezoidPerimeter;whiteSpace=wrap;html=1;fixedSize=1;direction=west;" parent="1" vertex="1">
          <mxGeometry x="930" y="420" width="120" height="60" as="geometry" />
        </mxCell>
        <mxCell id="pq-BxAAFdue_On6Kdwnh-57" value="" style="endArrow=classic;html=1;rounded=0;" parent="1" target="pq-BxAAFdue_On6Kdwnh-50" edge="1">
          <mxGeometry width="50" height="50" relative="1" as="geometry">
            <mxPoint x="710" y="460" as="sourcePoint" />
            <mxPoint x="760" y="410" as="targetPoint" />
          </mxGeometry>
        </mxCell>
        <mxCell id="pq-BxAAFdue_On6Kdwnh-58" value="" style="endArrow=classic;html=1;rounded=0;entryX=0.5;entryY=0;entryDx=0;entryDy=0;" parent="1" target="pq-BxAAFdue_On6Kdwnh-49" edge="1">
          <mxGeometry width="50" height="50" relative="1" as="geometry">
            <mxPoint x="420" y="460" as="sourcePoint" />
            <mxPoint x="470" y="410" as="targetPoint" />
          </mxGeometry>
        </mxCell>
        <mxCell id="pq-BxAAFdue_On6Kdwnh-59" value="Конец" style="rounded=1;whiteSpace=wrap;html=1;" parent="1" vertex="1">
          <mxGeometry x="650" y="590" width="120" height="60" as="geometry" />
        </mxCell>
        <mxCell id="pq-BxAAFdue_On6Kdwnh-60" value="Конец" style="rounded=1;whiteSpace=wrap;html=1;" parent="1" vertex="1">
          <mxGeometry x="354" y="580" width="120" height="60" as="geometry" />
        </mxCell>
        <mxCell id="pq-BxAAFdue_On6Kdwnh-63" value="" style="edgeStyle=orthogonalEdgeStyle;rounded=0;orthogonalLoop=1;jettySize=auto;html=1;" parent="1" edge="1">
          <mxGeometry relative="1" as="geometry">
            <mxPoint x="989.5799999999999" y="480" as="sourcePoint" />
            <mxPoint x="989.5799999999999" y="510" as="targetPoint" />
          </mxGeometry>
        </mxCell>
        <mxCell id="pq-BxAAFdue_On6Kdwnh-64" value="Конец" style="rounded=1;whiteSpace=wrap;html=1;" parent="1" vertex="1">
          <mxGeometry x="930" y="510" width="120" height="60" as="geometry" />
        </mxCell>
        <mxCell id="TfzMQPh2Rp4UFnEDLOlz-1" value="Алгоритм установки дверей:" style="text;html=1;align=center;verticalAlign=middle;whiteSpace=wrap;rounded=0;" vertex="1" parent="1">
          <mxGeometry x="1330" y="120" width="60" height="30" as="geometry" />
        </mxCell>
        <mxCell id="TfzMQPh2Rp4UFnEDLOlz-2" value="начало" style="rounded=1;whiteSpace=wrap;html=1;fontStyle=1" vertex="1" parent="1">
          <mxGeometry x="1310" y="180" width="120" height="60" as="geometry" />
        </mxCell>
        <mxCell id="TfzMQPh2Rp4UFnEDLOlz-3" value="" style="endArrow=classic;html=1;rounded=0;exitX=0.5;exitY=1;exitDx=0;exitDy=0;entryX=0.5;entryY=0;entryDx=0;entryDy=0;" edge="1" parent="1" source="pq-BxAAFdue_On6Kdwnh-36" target="pq-BxAAFdue_On6Kdwnh-34">
          <mxGeometry width="50" height="50" relative="1" as="geometry">
            <mxPoint x="820" y="350" as="sourcePoint" />
            <mxPoint x="870" y="300" as="targetPoint" />
          </mxGeometry>
        </mxCell>
        <mxCell id="TfzMQPh2Rp4UFnEDLOlz-4" value="" style="endArrow=classic;html=1;rounded=0;exitX=0.5;exitY=1;exitDx=0;exitDy=0;" edge="1" parent="1" source="TfzMQPh2Rp4UFnEDLOlz-2">
          <mxGeometry width="50" height="50" relative="1" as="geometry">
            <mxPoint x="1240" y="450" as="sourcePoint" />
            <mxPoint x="1370" y="280" as="targetPoint" />
          </mxGeometry>
        </mxCell>
        <mxCell id="TfzMQPh2Rp4UFnEDLOlz-6" value="Произвести замеры" style="shape=parallelogram;perimeter=parallelogramPerimeter;whiteSpace=wrap;html=1;fixedSize=1;" vertex="1" parent="1">
          <mxGeometry x="1285" y="280" width="170" height="60" as="geometry" />
        </mxCell>
        <mxCell id="TfzMQPh2Rp4UFnEDLOlz-8" value="" style="endArrow=classic;html=1;rounded=0;exitX=0.435;exitY=1.044;exitDx=0;exitDy=0;exitPerimeter=0;" edge="1" parent="1" source="TfzMQPh2Rp4UFnEDLOlz-6">
          <mxGeometry width="50" height="50" relative="1" as="geometry">
            <mxPoint x="1170" y="450" as="sourcePoint" />
            <mxPoint x="1359" y="360" as="targetPoint" />
          </mxGeometry>
        </mxCell>
        <mxCell id="TfzMQPh2Rp4UFnEDLOlz-15" value="" style="edgeStyle=orthogonalEdgeStyle;rounded=0;orthogonalLoop=1;jettySize=auto;html=1;" edge="1" parent="1" source="TfzMQPh2Rp4UFnEDLOlz-10" target="TfzMQPh2Rp4UFnEDLOlz-14">
          <mxGeometry relative="1" as="geometry" />
        </mxCell>
        <mxCell id="TfzMQPh2Rp4UFnEDLOlz-10" value="Установить коробку для дверей" style="rounded=1;whiteSpace=wrap;html=1;" vertex="1" parent="1">
          <mxGeometry x="1300" y="360" width="120" height="60" as="geometry" />
        </mxCell>
        <mxCell id="TfzMQPh2Rp4UFnEDLOlz-17" value="" style="edgeStyle=orthogonalEdgeStyle;rounded=0;orthogonalLoop=1;jettySize=auto;html=1;" edge="1" parent="1" source="TfzMQPh2Rp4UFnEDLOlz-14" target="TfzMQPh2Rp4UFnEDLOlz-16">
          <mxGeometry relative="1" as="geometry" />
        </mxCell>
        <mxCell id="TfzMQPh2Rp4UFnEDLOlz-14" value="Установить непосредственно саму дверь" style="whiteSpace=wrap;html=1;rounded=1;" vertex="1" parent="1">
          <mxGeometry x="1300" y="440" width="120" height="60" as="geometry" />
        </mxCell>
        <mxCell id="TfzMQPh2Rp4UFnEDLOlz-19" value="" style="edgeStyle=orthogonalEdgeStyle;rounded=0;orthogonalLoop=1;jettySize=auto;html=1;" edge="1" parent="1" source="TfzMQPh2Rp4UFnEDLOlz-16" target="TfzMQPh2Rp4UFnEDLOlz-18">
          <mxGeometry relative="1" as="geometry" />
        </mxCell>
        <mxCell id="TfzMQPh2Rp4UFnEDLOlz-16" value="Проверяем исправность установленной двери" style="whiteSpace=wrap;html=1;rounded=1;" vertex="1" parent="1">
          <mxGeometry x="1300" y="520" width="120" height="60" as="geometry" />
        </mxCell>
        <mxCell id="TfzMQPh2Rp4UFnEDLOlz-18" value="Конец" style="whiteSpace=wrap;html=1;rounded=1;" vertex="1" parent="1">
          <mxGeometry x="1300" y="600" width="120" height="60" as="geometry" />
        </mxCell>
        <mxCell id="TfzMQPh2Rp4UFnEDLOlz-24" value="" style="edgeStyle=orthogonalEdgeStyle;rounded=0;orthogonalLoop=1;jettySize=auto;html=1;" edge="1" parent="1" source="TfzMQPh2Rp4UFnEDLOlz-22">
          <mxGeometry relative="1" as="geometry">
            <mxPoint x="1725" y="180" as="targetPoint" />
          </mxGeometry>
        </mxCell>
        <mxCell id="TfzMQPh2Rp4UFnEDLOlz-22" value="Управление скейтом:" style="text;html=1;align=center;verticalAlign=middle;whiteSpace=wrap;rounded=0;" vertex="1" parent="1">
          <mxGeometry x="1680" y="120" width="90" height="40" as="geometry" />
        </mxCell>
        <mxCell id="TfzMQPh2Rp4UFnEDLOlz-30" value="" style="endArrow=classic;html=1;rounded=0;exitX=0.5;exitY=1;exitDx=0;exitDy=0;" edge="1" parent="1">
          <mxGeometry width="50" height="50" relative="1" as="geometry">
            <mxPoint x="1725" y="240" as="sourcePoint" />
            <mxPoint x="1725" y="280" as="targetPoint" />
          </mxGeometry>
        </mxCell>
        <mxCell id="TfzMQPh2Rp4UFnEDLOlz-41" value="" style="edgeStyle=orthogonalEdgeStyle;rounded=0;orthogonalLoop=1;jettySize=auto;html=1;" edge="1" parent="1" source="TfzMQPh2Rp4UFnEDLOlz-39">
          <mxGeometry relative="1" as="geometry">
            <mxPoint x="1725" y="370" as="targetPoint" />
          </mxGeometry>
        </mxCell>
        <mxCell id="TfzMQPh2Rp4UFnEDLOlz-39" value="Поставить скейт на землю" style="shape=parallelogram;perimeter=parallelogramPerimeter;whiteSpace=wrap;html=1;fixedSize=1;" vertex="1" parent="1">
          <mxGeometry x="1640" y="280" width="170" height="60" as="geometry" />
        </mxCell>
        <mxCell id="TfzMQPh2Rp4UFnEDLOlz-43" value="" style="edgeStyle=orthogonalEdgeStyle;rounded=0;orthogonalLoop=1;jettySize=auto;html=1;" edge="1" parent="1">
          <mxGeometry relative="1" as="geometry">
            <mxPoint x="1725" y="420" as="sourcePoint" />
            <mxPoint x="1725" y="450" as="targetPoint" />
          </mxGeometry>
        </mxCell>
        <mxCell id="TfzMQPh2Rp4UFnEDLOlz-47" value="" style="edgeStyle=orthogonalEdgeStyle;rounded=0;orthogonalLoop=1;jettySize=auto;html=1;" edge="1" parent="1">
          <mxGeometry relative="1" as="geometry">
            <mxPoint x="1725" y="490" as="sourcePoint" />
            <mxPoint x="1725" y="520" as="targetPoint" />
          </mxGeometry>
        </mxCell>
        <mxCell id="TfzMQPh2Rp4UFnEDLOlz-49" value="" style="edgeStyle=orthogonalEdgeStyle;rounded=0;orthogonalLoop=1;jettySize=auto;html=1;" edge="1" parent="1">
          <mxGeometry relative="1" as="geometry">
            <mxPoint x="1725" y="560" as="sourcePoint" />
            <mxPoint x="1725" y="590" as="targetPoint" />
          </mxGeometry>
        </mxCell>
        <mxCell id="TfzMQPh2Rp4UFnEDLOlz-51" value="" style="edgeStyle=orthogonalEdgeStyle;rounded=0;orthogonalLoop=1;jettySize=auto;html=1;" edge="1" parent="1">
          <mxGeometry relative="1" as="geometry">
            <mxPoint x="1725" y="630" as="sourcePoint" />
            <mxPoint x="1725" y="650" as="targetPoint" />
          </mxGeometry>
        </mxCell>
        <mxCell id="TfzMQPh2Rp4UFnEDLOlz-53" value="начало" style="rounded=1;whiteSpace=wrap;html=1;" vertex="1" parent="1">
          <mxGeometry x="1665" y="180" width="120" height="60" as="geometry" />
        </mxCell>
        <mxCell id="TfzMQPh2Rp4UFnEDLOlz-54" value="надеть наколенники" style="rounded=1;whiteSpace=wrap;html=1;" vertex="1" parent="1">
          <mxGeometry x="1640" y="365" width="160" height="50" as="geometry" />
        </mxCell>
        <mxCell id="TfzMQPh2Rp4UFnEDLOlz-55" value="Надеть шлем" style="rounded=1;whiteSpace=wrap;html=1;" vertex="1" parent="1">
          <mxGeometry x="1640" y="450" width="160" height="40" as="geometry" />
        </mxCell>
        <mxCell id="TfzMQPh2Rp4UFnEDLOlz-56" value="Правой ногой встать на скейт" style="rounded=1;whiteSpace=wrap;html=1;" vertex="1" parent="1">
          <mxGeometry x="1640" y="520" width="160" height="50" as="geometry" />
        </mxCell>
        <mxCell id="TfzMQPh2Rp4UFnEDLOlz-57" value="Левой ногой отталкиваемся от асфальта" style="rounded=1;whiteSpace=wrap;html=1;" vertex="1" parent="1">
          <mxGeometry x="1640" y="590" width="160" height="40" as="geometry" />
        </mxCell>
        <mxCell id="TfzMQPh2Rp4UFnEDLOlz-58" value="Конец" style="rounded=1;whiteSpace=wrap;html=1;" vertex="1" parent="1">
          <mxGeometry x="1640" y="650" width="160" height="40" as="geometry" />
        </mxCell>
        <mxCell id="TfzMQPh2Rp4UFnEDLOlz-59" value="" style="edgeStyle=orthogonalEdgeStyle;rounded=0;orthogonalLoop=1;jettySize=auto;html=1;" edge="1" parent="1">
          <mxGeometry relative="1" as="geometry">
            <mxPoint x="2015" y="160" as="sourcePoint" />
            <mxPoint x="2015" y="180" as="targetPoint" />
          </mxGeometry>
        </mxCell>
        <mxCell id="TfzMQPh2Rp4UFnEDLOlz-60" value="" style="endArrow=classic;html=1;rounded=0;exitX=0.5;exitY=1;exitDx=0;exitDy=0;" edge="1" parent="1">
          <mxGeometry width="50" height="50" relative="1" as="geometry">
            <mxPoint x="2015" y="240" as="sourcePoint" />
            <mxPoint x="2015" y="280" as="targetPoint" />
          </mxGeometry>
        </mxCell>
        <mxCell id="TfzMQPh2Rp4UFnEDLOlz-61" value="" style="edgeStyle=orthogonalEdgeStyle;rounded=0;orthogonalLoop=1;jettySize=auto;html=1;" edge="1" parent="1" source="TfzMQPh2Rp4UFnEDLOlz-62">
          <mxGeometry relative="1" as="geometry">
            <mxPoint x="2015" y="370" as="targetPoint" />
          </mxGeometry>
        </mxCell>
        <mxCell id="TfzMQPh2Rp4UFnEDLOlz-62" value="Загрузить посуду в посудомойку" style="shape=parallelogram;perimeter=parallelogramPerimeter;whiteSpace=wrap;html=1;fixedSize=1;" vertex="1" parent="1">
          <mxGeometry x="1930" y="280" width="170" height="60" as="geometry" />
        </mxCell>
        <mxCell id="TfzMQPh2Rp4UFnEDLOlz-63" value="" style="edgeStyle=orthogonalEdgeStyle;rounded=0;orthogonalLoop=1;jettySize=auto;html=1;" edge="1" parent="1">
          <mxGeometry relative="1" as="geometry">
            <mxPoint x="2015" y="420" as="sourcePoint" />
            <mxPoint x="2015" y="450" as="targetPoint" />
          </mxGeometry>
        </mxCell>
        <mxCell id="TfzMQPh2Rp4UFnEDLOlz-64" value="" style="edgeStyle=orthogonalEdgeStyle;rounded=0;orthogonalLoop=1;jettySize=auto;html=1;" edge="1" parent="1">
          <mxGeometry relative="1" as="geometry">
            <mxPoint x="2015" y="490" as="sourcePoint" />
            <mxPoint x="2015" y="520" as="targetPoint" />
          </mxGeometry>
        </mxCell>
        <mxCell id="TfzMQPh2Rp4UFnEDLOlz-65" value="" style="edgeStyle=orthogonalEdgeStyle;rounded=0;orthogonalLoop=1;jettySize=auto;html=1;" edge="1" parent="1">
          <mxGeometry relative="1" as="geometry">
            <mxPoint x="2015" y="560" as="sourcePoint" />
            <mxPoint x="2015" y="590" as="targetPoint" />
          </mxGeometry>
        </mxCell>
        <mxCell id="TfzMQPh2Rp4UFnEDLOlz-66" value="" style="edgeStyle=orthogonalEdgeStyle;rounded=0;orthogonalLoop=1;jettySize=auto;html=1;" edge="1" parent="1">
          <mxGeometry relative="1" as="geometry">
            <mxPoint x="2014.5" y="650" as="sourcePoint" />
            <mxPoint x="2014.5" y="670" as="targetPoint" />
          </mxGeometry>
        </mxCell>
        <mxCell id="TfzMQPh2Rp4UFnEDLOlz-67" value="начало" style="rounded=1;whiteSpace=wrap;html=1;" vertex="1" parent="1">
          <mxGeometry x="1955" y="180" width="120" height="60" as="geometry" />
        </mxCell>
        <mxCell id="TfzMQPh2Rp4UFnEDLOlz-68" value="Добавить средство для мытья посуды в специальный раздел в посудомоечную машину" style="rounded=1;whiteSpace=wrap;html=1;" vertex="1" parent="1">
          <mxGeometry x="1927.5" y="370" width="175" height="50" as="geometry" />
        </mxCell>
        <mxCell id="TfzMQPh2Rp4UFnEDLOlz-69" value="Включить нужную программу с таймером по времени&amp;nbsp;" style="rounded=1;whiteSpace=wrap;html=1;" vertex="1" parent="1">
          <mxGeometry x="1930" y="450" width="160" height="40" as="geometry" />
        </mxCell>
        <mxCell id="TfzMQPh2Rp4UFnEDLOlz-70" value="Закрыть посудомоечную машину" style="rounded=1;whiteSpace=wrap;html=1;" vertex="1" parent="1">
          <mxGeometry x="1930" y="520" width="160" height="50" as="geometry" />
        </mxCell>
        <mxCell id="TfzMQPh2Rp4UFnEDLOlz-71" value="Дождаться когда посудомоечная машина подаст сигнал по истечении времени мойки посуды." style="rounded=1;whiteSpace=wrap;html=1;" vertex="1" parent="1">
          <mxGeometry x="1925" y="590" width="180" height="60" as="geometry" />
        </mxCell>
        <mxCell id="TfzMQPh2Rp4UFnEDLOlz-72" value="Конец" style="rounded=1;whiteSpace=wrap;html=1;" vertex="1" parent="1">
          <mxGeometry x="1935" y="670" width="160" height="40" as="geometry" />
        </mxCell>
        <mxCell id="TfzMQPh2Rp4UFnEDLOlz-73" value="Алгоритм мытья посуды" style="text;html=1;align=center;verticalAlign=middle;whiteSpace=wrap;rounded=0;" vertex="1" parent="1">
          <mxGeometry x="1940" y="125" width="160" height="30" as="geometry" />
        </mxCell>
      </root>
    </mxGraphModel>
  </diagram>
</mxfile>
